<mxfile host="app.diagrams.net" agent="Mozilla/5.0 (Windows NT 10.0; Win64; x64) AppleWebKit/537.36 (KHTML, like Gecko) Chrome/132.0.0.0 Safari/537.36 Edg/132.0.0.0" version="27.0.9">
  <diagram id="07fea595-8f29-1299-0266-81d95cde20df" name="Page-1">
    <mxGraphModel dx="1418" dy="-33" grid="1" gridSize="10" guides="1" tooltips="1" connect="1" arrows="1" fold="1" page="1" pageScale="1" pageWidth="1169" pageHeight="827" background="#ffffff" math="0" shadow="0">
      <root>
        <mxCell id="0" />
        <mxCell id="1" parent="0" />
        <mxCell id="rUCa5uuKyRTtIBlGUxok-1" value="" style="swimlane;startSize=0;container=1;collapsible=0;dashed=1;strokeWidth=2;" vertex="1" parent="1">
          <mxGeometry x="80" y="1120" width="520" height="320" as="geometry" />
        </mxCell>
        <mxCell id="rUCa5uuKyRTtIBlGUxok-4" value="&lt;div&gt;Сервер&lt;/div&gt;интернет-банка" style="rounded=1;whiteSpace=wrap;html=1;shadow=0;labelBackgroundColor=none;strokeColor=default;strokeWidth=1;fillColor=#64bbe2;fontFamily=Helvetica;fontSize=14;fontColor=#FFFFFF;align=center;spacing=5;arcSize=7;perimeterSpacing=2;" vertex="1" parent="rUCa5uuKyRTtIBlGUxok-1">
          <mxGeometry x="40" y="220" width="120" height="60" as="geometry" />
        </mxCell>
        <mxCell id="rUCa5uuKyRTtIBlGUxok-28" style="edgeStyle=orthogonalEdgeStyle;rounded=0;orthogonalLoop=1;jettySize=auto;html=1;exitX=1;exitY=0.5;exitDx=0;exitDy=0;entryX=0;entryY=0.5;entryDx=0;entryDy=0;" edge="1" parent="rUCa5uuKyRTtIBlGUxok-1" source="rUCa5uuKyRTtIBlGUxok-5" target="rUCa5uuKyRTtIBlGUxok-6">
          <mxGeometry relative="1" as="geometry" />
        </mxCell>
        <mxCell id="rUCa5uuKyRTtIBlGUxok-38" style="edgeStyle=orthogonalEdgeStyle;rounded=0;orthogonalLoop=1;jettySize=auto;html=1;exitX=0;exitY=0.5;exitDx=0;exitDy=0;entryX=0.5;entryY=0;entryDx=0;entryDy=0;fillColor=#f8cecc;strokeColor=#b85450;" edge="1" parent="rUCa5uuKyRTtIBlGUxok-1" source="rUCa5uuKyRTtIBlGUxok-5" target="rUCa5uuKyRTtIBlGUxok-4">
          <mxGeometry relative="1" as="geometry" />
        </mxCell>
        <mxCell id="rUCa5uuKyRTtIBlGUxok-5" value="API Gateway" style="rounded=1;whiteSpace=wrap;html=1;shadow=0;labelBackgroundColor=none;strokeColor=default;strokeWidth=1;fillColor=#64bbe2;fontFamily=Helvetica;fontSize=14;fontColor=#FFFFFF;align=center;spacing=5;arcSize=7;perimeterSpacing=2;" vertex="1" parent="rUCa5uuKyRTtIBlGUxok-1">
          <mxGeometry x="200" y="130" width="120" height="60" as="geometry" />
        </mxCell>
        <mxCell id="rUCa5uuKyRTtIBlGUxok-6" value="Микросервис&lt;br&gt;&lt;div&gt;депозитов&lt;/div&gt;" style="rounded=1;whiteSpace=wrap;html=1;shadow=0;labelBackgroundColor=none;strokeColor=default;strokeWidth=1;fillColor=#64bbe2;fontFamily=Helvetica;fontSize=14;fontColor=#FFFFFF;align=center;spacing=5;arcSize=7;perimeterSpacing=2;" vertex="1" parent="rUCa5uuKyRTtIBlGUxok-1">
          <mxGeometry x="360" y="130" width="120" height="60" as="geometry" />
        </mxCell>
        <mxCell id="rUCa5uuKyRTtIBlGUxok-26" style="edgeStyle=orthogonalEdgeStyle;rounded=0;orthogonalLoop=1;jettySize=auto;html=1;exitX=0.5;exitY=1;exitDx=0;exitDy=0;entryX=0.5;entryY=0;entryDx=0;entryDy=0;startArrow=classic;startFill=1;fillColor=#f8cecc;strokeColor=#b85450;" edge="1" parent="rUCa5uuKyRTtIBlGUxok-1" source="rUCa5uuKyRTtIBlGUxok-3" target="rUCa5uuKyRTtIBlGUxok-5">
          <mxGeometry relative="1" as="geometry" />
        </mxCell>
        <mxCell id="rUCa5uuKyRTtIBlGUxok-50" style="edgeStyle=orthogonalEdgeStyle;rounded=0;orthogonalLoop=1;jettySize=auto;html=1;exitX=0;exitY=0.5;exitDx=0;exitDy=0;entryX=0;entryY=0.25;entryDx=0;entryDy=0;" edge="1" parent="rUCa5uuKyRTtIBlGUxok-1" source="rUCa5uuKyRTtIBlGUxok-3" target="rUCa5uuKyRTtIBlGUxok-4">
          <mxGeometry relative="1" as="geometry">
            <Array as="points">
              <mxPoint x="-40" y="70" />
              <mxPoint x="-40" y="234" />
            </Array>
          </mxGeometry>
        </mxCell>
        <mxCell id="rUCa5uuKyRTtIBlGUxok-3" value="&lt;div&gt;Клиент&lt;/div&gt;интернет-банка" style="rounded=1;whiteSpace=wrap;html=1;shadow=0;labelBackgroundColor=none;strokeColor=default;strokeWidth=1;fillColor=#64bbe2;fontFamily=Helvetica;fontSize=14;fontColor=#FFFFFF;align=center;spacing=5;arcSize=7;perimeterSpacing=2;labelBorderColor=none;" vertex="1" parent="rUCa5uuKyRTtIBlGUxok-1">
          <mxGeometry x="200" y="40" width="120" height="60" as="geometry" />
        </mxCell>
        <mxCell id="rUCa5uuKyRTtIBlGUxok-37" style="edgeStyle=orthogonalEdgeStyle;rounded=0;orthogonalLoop=1;jettySize=auto;html=1;exitX=0;exitY=0.5;exitDx=0;exitDy=0;exitPerimeter=0;entryX=1;entryY=0.5;entryDx=0;entryDy=0;" edge="1" parent="rUCa5uuKyRTtIBlGUxok-1" source="rUCa5uuKyRTtIBlGUxok-23" target="rUCa5uuKyRTtIBlGUxok-4">
          <mxGeometry relative="1" as="geometry" />
        </mxCell>
        <mxCell id="rUCa5uuKyRTtIBlGUxok-46" style="edgeStyle=orthogonalEdgeStyle;rounded=0;orthogonalLoop=1;jettySize=auto;html=1;exitX=1;exitY=0.5;exitDx=0;exitDy=0;exitPerimeter=0;entryX=0.5;entryY=1;entryDx=0;entryDy=0;" edge="1" parent="rUCa5uuKyRTtIBlGUxok-1" source="rUCa5uuKyRTtIBlGUxok-23" target="rUCa5uuKyRTtIBlGUxok-6">
          <mxGeometry relative="1" as="geometry" />
        </mxCell>
        <mxCell id="rUCa5uuKyRTtIBlGUxok-47" style="edgeStyle=orthogonalEdgeStyle;rounded=0;orthogonalLoop=1;jettySize=auto;html=1;exitX=0.5;exitY=0;exitDx=0;exitDy=0;exitPerimeter=0;entryX=0.5;entryY=1;entryDx=0;entryDy=0;" edge="1" parent="rUCa5uuKyRTtIBlGUxok-1" source="rUCa5uuKyRTtIBlGUxok-23" target="rUCa5uuKyRTtIBlGUxok-5">
          <mxGeometry relative="1" as="geometry" />
        </mxCell>
        <mxCell id="rUCa5uuKyRTtIBlGUxok-23" value="&lt;div style=&quot;color: rgb(255, 255, 255); font-size: 14px;&quot;&gt;Кеш&lt;/div&gt;&lt;div style=&quot;color: rgb(255, 255, 255); font-size: 14px;&quot;&gt;ставок&lt;/div&gt;" style="strokeWidth=1;html=1;shape=mxgraph.flowchart.decision;whiteSpace=wrap;fillColor=light-dark(#64bbe2, #ededed);" vertex="1" parent="rUCa5uuKyRTtIBlGUxok-1">
          <mxGeometry x="220" y="210" width="80" height="80" as="geometry" />
        </mxCell>
        <mxCell id="rUCa5uuKyRTtIBlGUxok-51" value="&lt;font style=&quot;color: rgb(255, 255, 255);&quot;&gt;БД&lt;/font&gt;" style="strokeWidth=1;html=1;shape=mxgraph.flowchart.database;whiteSpace=wrap;fillColor=light-dark(#64bbe2, #ededed);spacingBottom=-10;" vertex="1" parent="rUCa5uuKyRTtIBlGUxok-1">
          <mxGeometry x="430" y="180" width="60" height="40" as="geometry" />
        </mxCell>
        <mxCell id="rUCa5uuKyRTtIBlGUxok-53" value="&lt;font style=&quot;color: rgb(255, 255, 255);&quot;&gt;БД&lt;/font&gt;" style="strokeWidth=1;html=1;shape=mxgraph.flowchart.database;whiteSpace=wrap;fillColor=light-dark(#64bbe2, #ededed);spacingBottom=-10;" vertex="1" parent="rUCa5uuKyRTtIBlGUxok-1">
          <mxGeometry x="110" y="270" width="60" height="40" as="geometry" />
        </mxCell>
        <mxCell id="rUCa5uuKyRTtIBlGUxok-69" value="Redis" style="text;html=1;align=center;verticalAlign=middle;resizable=0;points=[];autosize=1;strokeColor=none;fillColor=none;" vertex="1" parent="rUCa5uuKyRTtIBlGUxok-1">
          <mxGeometry x="260" y="275" width="50" height="30" as="geometry" />
        </mxCell>
        <mxCell id="rUCa5uuKyRTtIBlGUxok-71" value=".NET Confluent, Aspire" style="text;html=1;align=center;verticalAlign=middle;resizable=0;points=[];autosize=1;strokeColor=none;fillColor=none;" vertex="1" parent="rUCa5uuKyRTtIBlGUxok-1">
          <mxGeometry x="370" y="290" width="150" height="30" as="geometry" />
        </mxCell>
        <mxCell id="rUCa5uuKyRTtIBlGUxok-75" value="предоставляет&lt;div&gt;ставки&lt;/div&gt;" style="text;html=1;align=center;verticalAlign=middle;resizable=0;points=[];autosize=1;strokeColor=none;fillColor=none;" vertex="1" parent="rUCa5uuKyRTtIBlGUxok-1">
          <mxGeometry x="280" y="210" width="110" height="40" as="geometry" />
        </mxCell>
        <mxCell id="rUCa5uuKyRTtIBlGUxok-81" value="посылает&lt;div&gt;заявку&lt;/div&gt;&lt;div&gt;по-старому&lt;/div&gt;" style="text;html=1;align=center;verticalAlign=middle;resizable=0;points=[];autosize=1;strokeColor=none;fillColor=none;" vertex="1" parent="rUCa5uuKyRTtIBlGUxok-1">
          <mxGeometry x="9" y="32" width="90" height="60" as="geometry" />
        </mxCell>
        <mxCell id="rUCa5uuKyRTtIBlGUxok-25" style="edgeStyle=orthogonalEdgeStyle;rounded=0;orthogonalLoop=1;jettySize=auto;html=1;exitX=0.5;exitY=1;exitDx=0;exitDy=0;entryX=0.5;entryY=0;entryDx=0;entryDy=0;" edge="1" parent="1" source="rUCa5uuKyRTtIBlGUxok-2" target="rUCa5uuKyRTtIBlGUxok-3">
          <mxGeometry relative="1" as="geometry" />
        </mxCell>
        <mxCell id="rUCa5uuKyRTtIBlGUxok-73" value="использует" style="edgeLabel;html=1;align=center;verticalAlign=middle;resizable=0;points=[];" vertex="1" connectable="0" parent="rUCa5uuKyRTtIBlGUxok-25">
          <mxGeometry x="-0.5385" y="-1" relative="1" as="geometry">
            <mxPoint as="offset" />
          </mxGeometry>
        </mxCell>
        <mxCell id="rUCa5uuKyRTtIBlGUxok-2" value="Клиент" style="shape=actor;html=1;labelPosition=center;verticalLabelPosition=top;align=center;verticalAlign=bottom;" vertex="1" parent="1">
          <mxGeometry x="320" y="1020" width="40" height="60" as="geometry" />
        </mxCell>
        <mxCell id="rUCa5uuKyRTtIBlGUxok-7" value="" style="swimlane;startSize=0;container=1;collapsible=0;dashed=1;strokeWidth=2;" vertex="1" parent="1">
          <mxGeometry x="80" y="1660" width="520" height="240" as="geometry" />
        </mxCell>
        <mxCell id="rUCa5uuKyRTtIBlGUxok-49" style="edgeStyle=orthogonalEdgeStyle;rounded=0;orthogonalLoop=1;jettySize=auto;html=1;exitX=1;exitY=0.5;exitDx=0;exitDy=0;entryX=0;entryY=0.5;entryDx=0;entryDy=0;" edge="1" parent="rUCa5uuKyRTtIBlGUxok-7" source="rUCa5uuKyRTtIBlGUxok-8" target="rUCa5uuKyRTtIBlGUxok-9">
          <mxGeometry relative="1" as="geometry" />
        </mxCell>
        <mxCell id="rUCa5uuKyRTtIBlGUxok-8" value="&lt;div&gt;Расчет&lt;/div&gt;&lt;div&gt;ставок&lt;/div&gt;" style="rounded=1;whiteSpace=wrap;html=1;shadow=0;labelBackgroundColor=none;strokeColor=default;strokeWidth=1;fillColor=#64bbe2;fontFamily=Helvetica;fontSize=14;fontColor=#FFFFFF;align=center;spacing=5;arcSize=7;perimeterSpacing=2;" vertex="1" parent="rUCa5uuKyRTtIBlGUxok-7">
          <mxGeometry x="40" y="40" width="120" height="60" as="geometry" />
        </mxCell>
        <mxCell id="rUCa5uuKyRTtIBlGUxok-33" style="edgeStyle=orthogonalEdgeStyle;rounded=0;orthogonalLoop=1;jettySize=auto;html=1;exitX=0.5;exitY=1;exitDx=0;exitDy=0;entryX=0.5;entryY=0;entryDx=0;entryDy=0;startArrow=classic;startFill=1;" edge="1" parent="rUCa5uuKyRTtIBlGUxok-7" source="rUCa5uuKyRTtIBlGUxok-9" target="rUCa5uuKyRTtIBlGUxok-11">
          <mxGeometry relative="1" as="geometry" />
        </mxCell>
        <mxCell id="rUCa5uuKyRTtIBlGUxok-48" style="edgeStyle=orthogonalEdgeStyle;rounded=0;orthogonalLoop=1;jettySize=auto;html=1;exitX=1;exitY=0.5;exitDx=0;exitDy=0;entryX=0;entryY=0.5;entryDx=0;entryDy=0;" edge="1" parent="rUCa5uuKyRTtIBlGUxok-7" source="rUCa5uuKyRTtIBlGUxok-9" target="rUCa5uuKyRTtIBlGUxok-41">
          <mxGeometry relative="1" as="geometry" />
        </mxCell>
        <mxCell id="rUCa5uuKyRTtIBlGUxok-9" value="API Gateway" style="rounded=1;whiteSpace=wrap;html=1;shadow=0;labelBackgroundColor=none;strokeColor=default;strokeWidth=1;fillColor=#64bbe2;fontFamily=Helvetica;fontSize=14;fontColor=#FFFFFF;align=center;spacing=5;arcSize=7;perimeterSpacing=2;" vertex="1" parent="rUCa5uuKyRTtIBlGUxok-7">
          <mxGeometry x="200" y="40" width="120" height="60" as="geometry" />
        </mxCell>
        <mxCell id="rUCa5uuKyRTtIBlGUxok-34" style="edgeStyle=orthogonalEdgeStyle;rounded=0;orthogonalLoop=1;jettySize=auto;html=1;exitX=1;exitY=0.5;exitDx=0;exitDy=0;entryX=0;entryY=0.5;entryDx=0;entryDy=0;" edge="1" parent="rUCa5uuKyRTtIBlGUxok-7" source="rUCa5uuKyRTtIBlGUxok-11" target="rUCa5uuKyRTtIBlGUxok-22">
          <mxGeometry relative="1" as="geometry" />
        </mxCell>
        <mxCell id="rUCa5uuKyRTtIBlGUxok-11" value="&lt;div&gt;АБС&lt;/div&gt;" style="rounded=1;whiteSpace=wrap;html=1;shadow=0;labelBackgroundColor=none;strokeColor=default;strokeWidth=1;fillColor=#64bbe2;fontFamily=Helvetica;fontSize=14;fontColor=#FFFFFF;align=center;spacing=5;arcSize=7;perimeterSpacing=2;" vertex="1" parent="rUCa5uuKyRTtIBlGUxok-7">
          <mxGeometry x="200" y="140" width="120" height="60" as="geometry" />
        </mxCell>
        <mxCell id="rUCa5uuKyRTtIBlGUxok-22" value="СМС&lt;div&gt;сервис&lt;/div&gt;" style="rounded=1;whiteSpace=wrap;html=1;shadow=0;labelBackgroundColor=none;strokeColor=default;strokeWidth=1;fillColor=#64bbe2;fontFamily=Helvetica;fontSize=14;fontColor=#FFFFFF;align=center;spacing=5;arcSize=7;perimeterSpacing=2;" vertex="1" parent="rUCa5uuKyRTtIBlGUxok-7">
          <mxGeometry x="360" y="140" width="120" height="60" as="geometry" />
        </mxCell>
        <mxCell id="rUCa5uuKyRTtIBlGUxok-41" value="Сервис&lt;div&gt;заявок&lt;/div&gt;" style="rounded=1;whiteSpace=wrap;html=1;shadow=0;labelBackgroundColor=none;strokeColor=default;strokeWidth=1;fillColor=#64bbe2;fontFamily=Helvetica;fontSize=14;fontColor=#FFFFFF;align=center;spacing=5;arcSize=7;perimeterSpacing=2;" vertex="1" parent="rUCa5uuKyRTtIBlGUxok-7">
          <mxGeometry x="360" y="40" width="120" height="60" as="geometry" />
        </mxCell>
        <mxCell id="rUCa5uuKyRTtIBlGUxok-54" value="&lt;font style=&quot;color: rgb(255, 255, 255);&quot;&gt;БД&lt;/font&gt;" style="strokeWidth=1;html=1;shape=mxgraph.flowchart.database;whiteSpace=wrap;fillColor=light-dark(#64bbe2, #ededed);spacingBottom=-10;" vertex="1" parent="rUCa5uuKyRTtIBlGUxok-7">
          <mxGeometry x="430" y="90" width="60" height="40" as="geometry" />
        </mxCell>
        <mxCell id="rUCa5uuKyRTtIBlGUxok-55" value="&lt;font style=&quot;color: rgb(255, 255, 255);&quot;&gt;БД&lt;/font&gt;" style="strokeWidth=1;html=1;shape=mxgraph.flowchart.database;whiteSpace=wrap;fillColor=light-dark(#64bbe2, #ededed);spacingBottom=-10;" vertex="1" parent="rUCa5uuKyRTtIBlGUxok-7">
          <mxGeometry x="430" y="190" width="60" height="40" as="geometry" />
        </mxCell>
        <mxCell id="rUCa5uuKyRTtIBlGUxok-56" value="&lt;font style=&quot;color: rgb(255, 255, 255);&quot;&gt;БД&lt;/font&gt;" style="strokeWidth=1;html=1;shape=mxgraph.flowchart.database;whiteSpace=wrap;fillColor=light-dark(#64bbe2, #ededed);spacingBottom=-10;" vertex="1" parent="rUCa5uuKyRTtIBlGUxok-7">
          <mxGeometry x="270" y="190" width="60" height="40" as="geometry" />
        </mxCell>
        <mxCell id="rUCa5uuKyRTtIBlGUxok-57" value="&lt;font style=&quot;color: rgb(255, 255, 255);&quot;&gt;БД&lt;/font&gt;" style="strokeWidth=1;html=1;shape=mxgraph.flowchart.database;whiteSpace=wrap;fillColor=light-dark(#64bbe2, #ededed);spacingBottom=-10;" vertex="1" parent="rUCa5uuKyRTtIBlGUxok-7">
          <mxGeometry x="110" y="90" width="60" height="40" as="geometry" />
        </mxCell>
        <mxCell id="rUCa5uuKyRTtIBlGUxok-58" value="Delphi, Oracle" style="text;html=1;align=center;verticalAlign=middle;resizable=0;points=[];autosize=1;strokeColor=none;fillColor=none;" vertex="1" parent="rUCa5uuKyRTtIBlGUxok-7">
          <mxGeometry x="174" y="195" width="100" height="30" as="geometry" />
        </mxCell>
        <mxCell id="rUCa5uuKyRTtIBlGUxok-77" value="сохраняет&lt;div&gt;в очередь&lt;/div&gt;" style="text;html=1;align=center;verticalAlign=middle;resizable=0;points=[];autosize=1;strokeColor=none;fillColor=none;" vertex="1" parent="rUCa5uuKyRTtIBlGUxok-7">
          <mxGeometry x="320" y="30" width="80" height="40" as="geometry" />
        </mxCell>
        <mxCell id="rUCa5uuKyRTtIBlGUxok-12" value="" style="swimlane;startSize=0;container=1;collapsible=0;dashed=1;strokeWidth=2;" vertex="1" parent="1">
          <mxGeometry x="80" y="1480" width="520" height="140" as="geometry" />
        </mxCell>
        <mxCell id="rUCa5uuKyRTtIBlGUxok-21" value="&lt;span style=&quot;color: rgb(255, 255, 255); font-size: 14px;&quot;&gt;Брокер&lt;/span&gt;&lt;div style=&quot;color: rgb(255, 255, 255); font-size: 14px;&quot;&gt;сообщений&lt;/div&gt;" style="strokeWidth=1;html=1;shape=mxgraph.flowchart.direct_data;whiteSpace=wrap;fillColor=light-dark(#64bbe2, #ededed);spacingRight=15;" vertex="1" parent="rUCa5uuKyRTtIBlGUxok-12">
          <mxGeometry x="200" y="40" width="120" height="60" as="geometry" />
        </mxCell>
        <mxCell id="rUCa5uuKyRTtIBlGUxok-70" value="Kafka" style="text;html=1;align=center;verticalAlign=middle;resizable=0;points=[];autosize=1;strokeColor=none;fillColor=none;" vertex="1" parent="rUCa5uuKyRTtIBlGUxok-12">
          <mxGeometry x="260" y="95" width="50" height="30" as="geometry" />
        </mxCell>
        <mxCell id="rUCa5uuKyRTtIBlGUxok-80" value="использует&lt;div&gt;брокер&lt;/div&gt;" style="text;html=1;align=center;verticalAlign=middle;resizable=0;points=[];autosize=1;strokeColor=none;fillColor=none;" vertex="1" parent="rUCa5uuKyRTtIBlGUxok-12">
          <mxGeometry x="60" y="20" width="90" height="40" as="geometry" />
        </mxCell>
        <mxCell id="rUCa5uuKyRTtIBlGUxok-35" style="edgeStyle=orthogonalEdgeStyle;rounded=0;orthogonalLoop=1;jettySize=auto;html=1;exitX=0.5;exitY=1;exitDx=0;exitDy=0;exitPerimeter=0;entryX=0.5;entryY=0;entryDx=0;entryDy=0;startArrow=classic;startFill=1;" edge="1" parent="1" source="rUCa5uuKyRTtIBlGUxok-21" target="rUCa5uuKyRTtIBlGUxok-9">
          <mxGeometry relative="1" as="geometry" />
        </mxCell>
        <mxCell id="rUCa5uuKyRTtIBlGUxok-39" style="edgeStyle=orthogonalEdgeStyle;rounded=0;orthogonalLoop=1;jettySize=auto;html=1;exitX=0.5;exitY=1;exitDx=0;exitDy=0;entryX=0;entryY=0.5;entryDx=0;entryDy=0;entryPerimeter=0;fillColor=#f8cecc;strokeColor=#b85450;" edge="1" parent="1" source="rUCa5uuKyRTtIBlGUxok-4" target="rUCa5uuKyRTtIBlGUxok-21">
          <mxGeometry relative="1" as="geometry">
            <Array as="points">
              <mxPoint x="180" y="1550" />
            </Array>
          </mxGeometry>
        </mxCell>
        <mxCell id="rUCa5uuKyRTtIBlGUxok-40" style="edgeStyle=orthogonalEdgeStyle;rounded=0;orthogonalLoop=1;jettySize=auto;html=1;exitX=0.5;exitY=0;exitDx=0;exitDy=0;exitPerimeter=0;entryX=0.5;entryY=1;entryDx=0;entryDy=0;entryPerimeter=0;" edge="1" parent="1" source="rUCa5uuKyRTtIBlGUxok-21" target="rUCa5uuKyRTtIBlGUxok-23">
          <mxGeometry relative="1" as="geometry" />
        </mxCell>
        <mxCell id="rUCa5uuKyRTtIBlGUxok-43" style="edgeStyle=orthogonalEdgeStyle;rounded=0;orthogonalLoop=1;jettySize=auto;html=1;exitX=1;exitY=0.5;exitDx=0;exitDy=0;entryX=1;entryY=0.5;entryDx=0;entryDy=0;entryPerimeter=0;" edge="1" parent="1" source="rUCa5uuKyRTtIBlGUxok-6" target="rUCa5uuKyRTtIBlGUxok-21">
          <mxGeometry relative="1" as="geometry">
            <Array as="points">
              <mxPoint x="640" y="1280" />
              <mxPoint x="640" y="1550" />
            </Array>
          </mxGeometry>
        </mxCell>
        <mxCell id="rUCa5uuKyRTtIBlGUxok-44" style="edgeStyle=orthogonalEdgeStyle;rounded=0;orthogonalLoop=1;jettySize=auto;html=1;exitX=0;exitY=0.75;exitDx=0;exitDy=0;entryX=0;entryY=0.5;entryDx=0;entryDy=0;" edge="1" parent="1" source="rUCa5uuKyRTtIBlGUxok-4" target="rUCa5uuKyRTtIBlGUxok-11">
          <mxGeometry relative="1" as="geometry">
            <Array as="points">
              <mxPoint x="40" y="1386" />
              <mxPoint x="40" y="1830" />
            </Array>
          </mxGeometry>
        </mxCell>
        <mxCell id="rUCa5uuKyRTtIBlGUxok-59" value="Java" style="text;html=1;align=center;verticalAlign=middle;resizable=0;points=[];autosize=1;strokeColor=none;fillColor=none;" vertex="1" parent="1">
          <mxGeometry x="432" y="1738" width="50" height="30" as="geometry" />
        </mxCell>
        <mxCell id="rUCa5uuKyRTtIBlGUxok-60" value="Java" style="text;html=1;align=center;verticalAlign=middle;resizable=0;points=[];autosize=1;strokeColor=none;fillColor=none;" vertex="1" parent="1">
          <mxGeometry x="272" y="1737" width="50" height="30" as="geometry" />
        </mxCell>
        <mxCell id="rUCa5uuKyRTtIBlGUxok-61" value=".NET" style="text;html=1;align=center;verticalAlign=middle;resizable=0;points=[];autosize=1;strokeColor=none;fillColor=none;" vertex="1" parent="1">
          <mxGeometry x="271" y="1288" width="50" height="30" as="geometry" />
        </mxCell>
        <mxCell id="rUCa5uuKyRTtIBlGUxok-62" value="Java" style="text;html=1;align=center;verticalAlign=middle;resizable=0;points=[];autosize=1;strokeColor=none;fillColor=none;" vertex="1" parent="1">
          <mxGeometry x="112" y="1737" width="50" height="30" as="geometry" />
        </mxCell>
        <mxCell id="rUCa5uuKyRTtIBlGUxok-63" value="Java" style="text;html=1;align=center;verticalAlign=middle;resizable=0;points=[];autosize=1;strokeColor=none;fillColor=none;" vertex="1" parent="1">
          <mxGeometry x="432" y="1837" width="50" height="30" as="geometry" />
        </mxCell>
        <mxCell id="rUCa5uuKyRTtIBlGUxok-64" value=".NET, MS SQL" style="text;html=1;align=center;verticalAlign=middle;resizable=0;points=[];autosize=1;strokeColor=none;fillColor=none;" vertex="1" parent="1">
          <mxGeometry x="87" y="1396" width="100" height="30" as="geometry" />
        </mxCell>
        <mxCell id="rUCa5uuKyRTtIBlGUxok-66" value=".NET" style="text;html=1;align=center;verticalAlign=middle;resizable=0;points=[];autosize=1;strokeColor=none;fillColor=none;" vertex="1" parent="1">
          <mxGeometry x="272" y="1199" width="50" height="30" as="geometry" />
        </mxCell>
        <mxCell id="rUCa5uuKyRTtIBlGUxok-67" value=".NET" style="text;html=1;align=center;verticalAlign=middle;resizable=0;points=[];autosize=1;strokeColor=none;fillColor=none;" vertex="1" parent="1">
          <mxGeometry x="432" y="1289" width="50" height="30" as="geometry" />
        </mxCell>
        <mxCell id="rUCa5uuKyRTtIBlGUxok-74" value="посылает&lt;div&gt;заявку&lt;/div&gt;" style="text;html=1;align=center;verticalAlign=middle;resizable=0;points=[];autosize=1;strokeColor=none;fillColor=none;" vertex="1" parent="1">
          <mxGeometry x="600" y="1440" width="80" height="40" as="geometry" />
        </mxCell>
        <mxCell id="rUCa5uuKyRTtIBlGUxok-76" value="вычисляет" style="text;html=1;align=center;verticalAlign=middle;resizable=0;points=[];autosize=1;strokeColor=none;fillColor=none;" vertex="1" parent="1">
          <mxGeometry x="220" y="1706" width="80" height="30" as="geometry" />
        </mxCell>
        <mxCell id="rUCa5uuKyRTtIBlGUxok-78" value="смс" style="text;html=1;align=center;verticalAlign=middle;resizable=0;points=[];autosize=1;strokeColor=none;fillColor=none;" vertex="1" parent="1">
          <mxGeometry x="400" y="1807" width="40" height="30" as="geometry" />
        </mxCell>
        <mxCell id="rUCa5uuKyRTtIBlGUxok-79" value="работает&lt;div&gt;напрямую&lt;/div&gt;" style="text;html=1;align=center;verticalAlign=middle;resizable=0;points=[];autosize=1;strokeColor=none;fillColor=none;" vertex="1" parent="1">
          <mxGeometry y="1440" width="80" height="40" as="geometry" />
        </mxCell>
        <mxCell id="rUCa5uuKyRTtIBlGUxok-82" value="перенаправляет&lt;div&gt;старые&lt;/div&gt;&lt;div&gt;операции&lt;/div&gt;" style="text;html=1;align=center;verticalAlign=middle;resizable=0;points=[];autosize=1;strokeColor=none;fillColor=none;" vertex="1" parent="1">
          <mxGeometry x="154" y="1256" width="110" height="60" as="geometry" />
        </mxCell>
        <mxCell id="rUCa5uuKyRTtIBlGUxok-84" value="завершает&lt;div&gt;заявку&lt;/div&gt;" style="text;html=1;align=center;verticalAlign=middle;resizable=0;points=[];autosize=1;strokeColor=none;fillColor=none;" vertex="1" parent="1">
          <mxGeometry x="263" y="1777" width="80" height="40" as="geometry" />
        </mxCell>
        <mxCell id="rUCa5uuKyRTtIBlGUxok-85" value="предоставляет&lt;div&gt;данные&lt;/div&gt;" style="text;html=1;align=center;verticalAlign=middle;resizable=0;points=[];autosize=1;strokeColor=none;fillColor=none;" vertex="1" parent="1">
          <mxGeometry x="332" y="1755" width="110" height="40" as="geometry" />
        </mxCell>
      </root>
    </mxGraphModel>
  </diagram>
</mxfile>
